<?xml version="1.0" standalone="no"?>
<!DOCTYPE svg PUBLIC "-//W3C//DTD SVG 20010904//EN"
 "http://www.w3.org/TR/2001/REC-SVG-20010904/DTD/svg10.dtd">
<svg version="1.0" xmlns="http://www.w3.org/2000/svg"
 width="188.000000pt" height="90.000000pt" viewBox="0 0 188.000000 90.000000"
 preserveAspectRatio="xMidYMid meet">

<g transform="translate(0.000000,90.000000) scale(0.100000,-0.100000)"
fill="#000000" stroke="none">
<path d="M172 488 c2 -7 19 -21 38 -30 l33 -17 -37 -17 c-20 -10 -36 -24 -36
-31 0 -10 14 -6 50 12 27 14 50 31 50 38 0 7 -20 23 -45 35 -53 25 -58 26 -53
10z"/>
<path d="M455 492 c-3 -3 -5 -25 -5 -48 0 -46 14 -67 23 -34 3 12 14 20 25 20
22 0 35 22 26 44 -5 14 -59 27 -69 18z m50 -32 c0 -22 -29 -18 -33 3 -3 14 1
18 15 15 10 -2 18 -10 18 -18z"/>
<path d="M630 447 c0 -57 -2 -55 51 -48 12 2 17 38 7 55 -5 9 -18 16 -29 16
-11 0 -18 4 -14 9 3 5 1 12 -5 16 -6 4 -10 -14 -10 -48z m50 -12 c0 -19 -20
-29 -32 -17 -8 8 -7 16 2 26 14 17 30 12 30 -9z"/>
<path d="M730 489 c-10 -6 -11 -9 -2 -9 7 0 12 -14 12 -35 0 -25 -4 -35 -16
-35 -8 0 -12 -4 -9 -10 3 -5 17 -10 30 -10 13 0 27 5 30 10 3 6 1 10 -4 10 -6
0 -11 18 -11 39 0 44 -8 55 -30 40z"/>
<path d="M970 447 c0 -36 4 -56 10 -52 6 3 10 13 10 21 0 8 4 13 9 10 5 -4 12
0 14 6 3 7 6 0 6 -15 2 -46 21 -20 21 28 0 48 -13 65 -29 38 -9 -17 -11 -17
-25 2 -14 19 -15 16 -16 -38z"/>
<path d="M1320 490 c0 -6 5 -10 10 -10 6 0 10 -16 10 -35 0 -25 -4 -35 -16
-35 -8 0 -12 -4 -9 -10 3 -5 17 -10 30 -10 13 0 27 5 30 10 3 6 -1 10 -9 10
-12 0 -16 10 -16 39 0 25 -5 41 -15 45 -8 3 -15 1 -15 -4z"/>
<path d="M1400 444 c0 -32 3 -54 7 -50 4 4 8 17 8 28 0 12 6 23 13 25 7 3 12
-5 12 -21 0 -13 5 -28 11 -31 7 -5 9 6 7 31 -2 32 -7 40 -26 42 -12 2 -20 7
-17 12 3 5 1 11 -5 15 -6 4 -10 -15 -10 -51z"/>
<path d="M1490 496 c0 -9 40 -13 46 -5 3 5 -6 9 -20 9 -14 0 -26 -2 -26 -4z"/>
<path d="M544 458 c-5 -8 0 -9 14 -6 12 4 24 2 27 -2 3 -5 -5 -10 -17 -12 -26
-3 -36 -33 -14 -41 40 -16 66 14 50 57 -7 18 -49 21 -60 4z m41 -38 c-3 -5
-10 -10 -16 -10 -5 0 -9 5 -9 10 0 6 7 10 16 10 8 0 12 -4 9 -10z"/>
<path d="M800 451 c-12 -23 -5 -47 16 -55 21 -8 42 3 49 25 14 42 -44 68 -65
30z m47 -7 c8 -21 -13 -42 -28 -27 -13 13 -5 43 11 43 6 0 13 -7 17 -16z"/>
<path d="M1060 460 c0 -7 7 -10 15 -7 8 4 17 2 20 -3 4 -6 -3 -10 -14 -10 -11
0 -23 -5 -27 -11 -10 -18 19 -39 44 -32 19 5 23 11 20 37 -2 25 -8 32 -30 34
-17 2 -28 -2 -28 -8z m40 -40 c0 -5 -7 -10 -16 -10 -8 0 -12 5 -9 10 3 6 10
10 16 10 5 0 9 -4 9 -10z"/>
<path d="M1144 456 c-10 -27 1 -50 26 -56 15 -4 20 -9 13 -13 -6 -4 -19 -4
-29 0 -12 4 -15 3 -10 -5 4 -7 18 -12 31 -12 26 0 33 16 27 68 -4 26 -9 32
-28 32 -14 0 -27 -6 -30 -14z m43 -11 c7 -20 -2 -29 -21 -22 -9 4 -13 13 -10
22 8 19 23 19 31 0z"/>
<path d="M1234 459 c-5 -9 -2 -10 9 -6 9 3 19 2 22 -3 4 -6 -3 -10 -14 -10
-11 0 -23 -5 -27 -11 -10 -18 19 -39 44 -32 19 5 23 11 20 37 -2 23 -9 32 -25
34 -11 2 -25 -2 -29 -9z m36 -39 c0 -5 -7 -10 -16 -10 -8 0 -12 5 -9 10 3 6
10 10 16 10 5 0 9 -4 9 -10z"/>
<path d="M1484 458 c-5 -8 0 -9 14 -6 12 4 24 2 27 -2 3 -5 -5 -10 -17 -12
-26 -3 -36 -33 -14 -41 40 -16 66 14 50 57 -7 18 -49 21 -60 4z m41 -38 c-3
-5 -10 -10 -16 -10 -5 0 -9 5 -9 10 0 6 7 10 16 10 8 0 12 -4 9 -10z"/>
<path d="M1570 451 c-18 -34 10 -68 45 -55 22 9 18 23 -4 17 -10 -3 -22 0 -25
6 -5 7 4 11 23 11 33 0 39 8 19 28 -18 18 -46 14 -58 -7z m45 -1 c3 -5 -3 -10
-15 -10 -12 0 -18 5 -15 10 3 6 10 10 15 10 5 0 12 -4 15 -10z"/>
<path d="M1655 460 c-8 -13 3 -30 20 -30 8 0 17 -5 21 -11 5 -9 -1 -10 -22 -5
-28 7 -28 7 -11 -11 13 -14 21 -15 35 -7 24 16 21 38 -5 42 -13 2 -23 8 -23
13 0 6 9 7 20 4 11 -4 20 -2 20 4 0 14 -47 14 -55 1z"/>
<path d="M305 350 c-3 -5 0 -13 8 -16 23 -8 102 0 102 11 0 14 -102 19 -110 5z"/>
</g>
</svg>
